<svg width="20" height="20" viewBox="0 0 20 20" fill="none" xmlns="http://www.w3.org/2000/svg">
<path d="M1 3C1 1.89543 1.89543 1 3 1H17C18.1046 1 19 1.89543 19 3C19 4.10457 18.1046 5 17 5H3C1.89543 5 1 4.10457 1 3Z" stroke="#2D3E52" stroke-width="1.5" stroke-linecap="round" stroke-linejoin="round"/>
<path d="M1 10C1 8.89543 1.89543 8 3 8H17C18.1046 8 19 8.89543 19 10C19 11.1046 18.1046 12 17 12H3C1.89543 12 1 11.1046 1 10Z" stroke="#2D3E52" stroke-width="1.5" stroke-linecap="round" stroke-linejoin="round"/>
<path d="M1 17C1 15.8954 1.89543 15 3 15H17C18.1046 15 19 15.8954 19 17C19 18.1046 18.1046 19 17 19H3C1.89543 19 1 18.1046 1 17Z" stroke="#2D3E52" stroke-width="1.5" stroke-linecap="round" stroke-linejoin="round"/>
</svg>
