<svg width="28" height="28" viewBox="0 0 28 28" fill="none" xmlns="http://www.w3.org/2000/svg">
<path d="M7.85417 0H19.2292C23.5625 0 27.0833 3.52083 27.0833 7.85417V19.2292C27.0833 21.3122 26.2558 23.31 24.7829 24.7829C23.31 26.2558 21.3122 27.0833 19.2292 27.0833H7.85417C3.52083 27.0833 0 23.5625 0 19.2292V7.85417C0 5.77111 0.82749 3.77337 2.30043 2.30043C3.77337 0.82749 5.77111 0 7.85417 0ZM7.58333 2.70833C6.2904 2.70833 5.05043 3.22195 4.13619 4.13619C3.22195 5.05043 2.70833 6.2904 2.70833 7.58333V19.5C2.70833 22.1948 4.88854 24.375 7.58333 24.375H19.5C20.7929 24.375 22.0329 23.8614 22.9471 22.9471C23.8614 22.0329 24.375 20.7929 24.375 19.5V7.58333C24.375 4.88854 22.1948 2.70833 19.5 2.70833H7.58333ZM20.651 4.73958C21.1 4.73958 21.5305 4.91792 21.848 5.23537C22.1654 5.55281 22.3438 5.98336 22.3438 6.43229C22.3438 6.88123 22.1654 7.31177 21.848 7.62922C21.5305 7.94666 21.1 8.125 20.651 8.125C20.2021 8.125 19.7716 7.94666 19.4541 7.62922C19.1367 7.31177 18.9583 6.88123 18.9583 6.43229C18.9583 5.98336 19.1367 5.55281 19.4541 5.23537C19.7716 4.91792 20.2021 4.73958 20.651 4.73958ZM13.5417 6.77083C15.3374 6.77083 17.0596 7.48419 18.3294 8.75396C19.5991 10.0237 20.3125 11.7459 20.3125 13.5417C20.3125 15.3374 19.5991 17.0596 18.3294 18.3294C17.0596 19.5991 15.3374 20.3125 13.5417 20.3125C11.7459 20.3125 10.0237 19.5991 8.75396 18.3294C7.48419 17.0596 6.77083 15.3374 6.77083 13.5417C6.77083 11.7459 7.48419 10.0237 8.75396 8.75396C10.0237 7.48419 11.7459 6.77083 13.5417 6.77083ZM13.5417 9.47917C12.4642 9.47917 11.4309 9.90718 10.669 10.669C9.90718 11.4309 9.47917 12.4642 9.47917 13.5417C9.47917 14.6191 9.90718 15.6524 10.669 16.4143C11.4309 17.1762 12.4642 17.6042 13.5417 17.6042C14.6191 17.6042 15.6524 17.1762 16.4143 16.4143C17.1762 15.6524 17.6042 14.6191 17.6042 13.5417C17.6042 12.4642 17.1762 11.4309 16.4143 10.669C15.6524 9.90718 14.6191 9.47917 13.5417 9.47917Z" fill="black"/>
</svg>
