<svg width="30" height="28" viewBox="0 0 30 28" fill="none" xmlns="http://www.w3.org/2000/svg">
<path d="M19.9583 9.125C22.1132 9.125 24.1798 9.98102 25.7036 11.5048C27.2273 13.0285 28.0833 15.0951 28.0833 17.25V26.7292H22.6667V17.25C22.6667 16.5317 22.3813 15.8428 21.8734 15.3349C21.3655 14.827 20.6766 14.5417 19.9583 14.5417C19.24 14.5417 18.5512 14.827 18.0433 15.3349C17.5353 15.8428 17.25 16.5317 17.25 17.25V26.7292H11.8333V17.25C11.8333 15.0951 12.6894 13.0285 14.2131 11.5048C15.7368 9.98102 17.8035 9.125 19.9583 9.125Z" stroke="black" stroke-width="2" stroke-linecap="round" stroke-linejoin="round"/>
<path d="M6.41667 10.4792H1V26.7292H6.41667V10.4792Z" stroke="black" stroke-width="2" stroke-linecap="round" stroke-linejoin="round"/>
<path d="M3.70833 6.41667C5.2041 6.41667 6.41667 5.2041 6.41667 3.70833C6.41667 2.21256 5.2041 1 3.70833 1C2.21256 1 1 2.21256 1 3.70833C1 5.2041 2.21256 6.41667 3.70833 6.41667Z" stroke="black" stroke-width="2" stroke-linecap="round" stroke-linejoin="round"/>
</svg>
